<?xml version="1.0" encoding="UTF-8"?>
<svg id="Layer_3" xmlns="http://www.w3.org/2000/svg" width="100" height="100" version="1.1" viewBox="0 0 100 100">
  <!-- Generator: Adobe Illustrator 29.1.0, SVG Export Plug-In . SVG Version: 2.1.0 Build 142)  -->
  <defs>
    <style>
      .st0 {
        fill: #fff;
        stroke: #000;
        stroke-miterlimit: 10;
      }
    </style>
  </defs>
  <path class="st0" d="M17.2,73.4c-.2-6.8-.6-13-1.3-19.8-1.1-9.3-1-18.7-2.3-27.3,24.1-.3,48.5-3.7,72,1.4.3,0,.6.1.8.4.2.3.2.7.2,1,0,14.6-1.2,29.1-3.4,43.5-.1.8-.3,1.7-1,2.1-.5.3-1.2.2-1.8.1-5.8-.9-11.6-1.7-17.5-2.2-12-1-24-.7-36-.5-3.2,0-6.5.1-9.7.4"/>
  <path class="st0" d="M14,26.7c5.4,6.3,11.8,11.8,18.1,17.3,4.8,4.2,9.6,8.4,14.5,12.6.3.3.6.5,1,.6.4,0,.8-.2,1.1-.5,1.8-1.3,3.5-2.6,5.7-4.8,9.3-7.1,18.7-14.2,28.1-21.2,1.3-.9,2.5-1.9,3.8-2.8"/>
  <path class="st0" d="M47.1,50.4c-.9.4-1.9-.4-2.6-1.2-1-1.1-2.1-2.2-2.7-3.6-.8-1.7-.9-3.7-.4-5.4.3-1,.8-1.9,1.6-2.5s2-.8,2.9-.3c1.4.7,1.6,2.6,1.6,4.2.8-1.3,2.1-2.3,3.5-2.9.9-.4,2-.5,2.9-.3s1.8,1.1,1.9,2.1c.1,1.1-.6,2.1-1.3,3-2.3,2.7-4.9,5.2-7.8,7.2"/>
</svg>