<?xml version="1.0" encoding="UTF-8"?>
<svg id="Layer_1" data-name="Layer 1" xmlns="http://www.w3.org/2000/svg" width="35.2" height="32.3" viewBox="0 0 35.2 32.3">
  <defs>
    <style>
      .cls-1 {
        fill: #fff;
        stroke: #000;
        stroke-dasharray: 0 0 0 0 0 0;
        stroke-linejoin: round;
        stroke-width: 5px;
      }
    </style>
  </defs>
  <path class="cls-1" d="M21.4,2.7c-5.3-.9-11,1.1-14.7,5.1s-5.1,9.8-3.8,15.1c.8,3.3,3.2,6.6,6.6,6.9,2.9.2,5.4-1.8,7.3-4.1,5.2-6.3,7.4-15,5.7-23-1,5.2-1.3,10.7.7,15.6,1.9,4.9,6.6,9,11.9,8.8"/>
  <path class="cls-1" d="M21.4,2.7c-5.3-.9-11,1.1-14.7,5.1s-5.1,9.8-3.8,15.1c.8,3.3,3.2,6.6,6.6,6.9,2.9.2,5.4-1.8,7.3-4.1,5.2-6.3,7.4-15,5.7-23-1,5.2-1.3,10.7.7,15.6,1.9,4.9,6.6,9,11.9,8.8"/>
</svg>